<svg xmlns="http://www.w3.org/2000/svg" xmlns:xlink="http://www.w3.org/1999/xlink" fill="none" viewBox="0 0 352 270">
    <defs>
        <path id="b" fill="#5D6D50" fill-rule="evenodd"
              d="M173.49 267.72c-22.26-14.46-46.45-21.32-70.97-28.28l-2.48-.7c-22.01-6.25-46.91-13.33-64.97-30.44-12.96-12.28-20.58-28.13-24.78-45.51-4.19-17.3-5-36.11-4.36-54.41.14-4.06.24-12.56-.41-19.82-.4-4.52-1.09-8.52-2.23-10.55L.5 73l4.24-3.37c7.91-6.3 16.04-12.12 24.39-17.45 8.36-5.35 16.93-10.21 25.71-14.59 19.14-9.56 39.05-16.77 59.27-22.64C134.29 9.10002 154.8 4.58002 175.17.430022l1.09-.22 1.08.3c10.82 3.039998 21.82 5.449998 32.78 7.859998l6.22 1.37C223.6 11.35 230.83 13 237.98 14.78c7.22 1.8 14.4 3.74 21.51 5.93 16.13 4.96 31.6 11.11 46.34 19.1 14.75 7.99 28.75 17.81 41.92 30.11l3.71 3.46-2.59 4.63c-1.13 2.03-1.82 6.04-2.23 10.55-.65 7.26-.55 15.76-.41 19.82.63 18.3-.18 37.11-4.36 54.41-4.21 17.38-11.82 33.23-24.78 45.51-18.06 17.11-42.97 24.19-64.98 30.44l-2.47.7c-24.52 6.96-48.71 13.83-70.97 28.28l-2.59 1.69-2.59-1.69Z"
              clip-rule="evenodd"/>
    </defs>
    <g clip-path="url(#a)">
        <use xlink:href="#b" fill-rule="evenodd" clip-rule="evenodd"/>
        <use xlink:href="#b" fill-rule="evenodd" clip-rule="evenodd"/>
        <path fill="#4B5945" fill-rule="evenodd"
              d="M176.15.200002V269.33l-.07.05-2.59-1.69c-22.26-14.45-46.43-21.32-70.96-28.27l-2.47-.7c-22.01-6.27-46.92-13.33-64.98-30.44C22.11 196 14.51 180.14 10.3 162.76c-4.17999-17.31-4.99999-36.11-4.35999-54.42.13-4.06.25-12.55-.42-19.82-.4-4.51-1.09-8.52-2.22-10.54l-2.79-5 4.24-3.38C12.65 63.3 20.79 57.49 29.13 52.14c8.37-5.35 16.94-10.21 25.72-14.59 19.13-9.56 39.05-16.78 59.27-22.64C134.3 9.06 154.81 4.55 175.18.390002l.99-.2-.02.01Z"
              clip-rule="evenodd"/>
        <path fill="#fff"
              d="M35.49 155.61v-8.55h-5.35v-2.26h13.47v2.26h-5.38v8.55h-2.74Zm12.9401 0v-10.82h9.79c1.89 0 3.19.83 3.87 2.02.39.68.52 1.43.52 2.13 0 .98-.26 2.06-1.16 2.92-.32.31-.71.58-1.17.78l2.89 2.97h-3.44l-2.5-2.58h-6.16v2.58h-2.64Zm2.63-4.85h7.15c.53 0 .92-.14 1.25-.46.38-.36.52-.85.52-1.39 0-.54-.15-1.03-.52-1.39-.32-.31-.72-.46-1.25-.46h-7.15v3.71-.01Zm16.5499 4.85 6.9-10.82h3.23l6.9 10.82h-2.99l-1.29-2.01h-8.48l-1.29 2.01H67.6h.01Zm5.72-4.28h5.59l-2.71-4.28h-.15l-2.73 4.28Zm16.14 4.28v-10.82h2.63v4.28h2.86l4.98-4.28h3.69l-6.24 5.41 6.24 5.41h-3.69l-4.98-4.27H92.1v4.27h-2.63Zm18.97 0v-10.82h13.47v2.26h-10.84v2.01h8.27v2.27h-8.27v2.01h10.84v2.27h-13.47Zm18.68 0v-10.82h2.63v4.4h8.93v-4.4h2.63v10.82h-2.63v-4.16h-8.93v4.16h-2.63Zm19.78 0v-10.82h2.3l9.25 7.51v-7.51h2.63v10.82h-2.29l-9.26-7.41v7.41h-2.63Zm19.38 0v-10.82h13.47v2.26h-10.84v2.01h8.27v2.27h-8.27v2.01h10.84v2.27h-13.47Zm18.68 0v-10.82h9.79c1.89 0 3.19.83 3.87 2.02.38.68.52 1.43.52 2.13 0 .98-.26 2.06-1.16 2.92-.32.31-.71.58-1.17.78l2.89 2.97h-3.44l-2.5-2.58h-6.17v2.58h-2.63Zm2.62-4.85h7.15c.53 0 .92-.14 1.25-.46.38-.36.52-.85.52-1.39 0-.54-.15-1.03-.52-1.39-.32-.31-.72-.46-1.25-.46h-7.15v3.71-.01Zm31.56.61v-2.27h9.4v6.5h-8.51c-2.42 0-4.11-1.09-4.99-2.62-.5-.88-.68-1.84-.68-2.76 0-.92.18-1.9.69-2.8.88-1.52 2.55-2.64 4.99-2.64h8.38v2.26h-8.36c-.92 0-1.63.26-2.2.8-.65.63-.88 1.47-.88 2.33 0 .86.23 1.71.89 2.34.56.55 1.27.82 2.19.82h5.89v-1.97h-6.79l-.02.01Zm14.61 4.24v-10.82h13.47v2.26h-10.84v2.01h8.27v2.27h-8.27v2.01h10.84v2.27h-13.47Zm18.73 0v-2.27h10.22c.54 0 .9-.36.9-1s-.35-1.01-.9-1.01h-7.15c-1.06 0-1.93-.33-2.57-.94-.72-.69-.93-1.55-.93-2.31s.21-1.65.93-2.33c.65-.62 1.51-.96 2.57-.96h10.25v2.26h-10.23c-.53 0-.9.37-.9.99s.36 1.02.9 1.02h7.15c1.06 0 1.94.32 2.58.94.72.69.92 1.55.92 2.31s-.21 1.64-.92 2.33c-.64.62-1.53.96-2.59.96h-10.24l.01.01Zm23.53 0v-8.55h-5.35v-2.26h13.47v2.26h-5.38v8.55h-2.74Zm12.94-10.82h2.63v4.19c0 1.49.58 3.02 2.13 3.84.69.36 1.43.52 2.3.52.87 0 1.65-.15 2.35-.52 1.57-.82 2.15-2.34 2.15-3.84v-4.19h2.63v4.23c0 1.13-.22 2.32-.85 3.4-1.12 1.91-3.21 3.19-6.2 3.19s-5.15-1.26-6.28-3.18c-.64-1.09-.86-2.27-.86-3.41v-4.23Zm4.21-.92v-2.27h2.63v2.27h-2.63Zm3.13 0v-2.27h2.63v2.27h-2.63Zm17.01 11.74v-8.55h-5.35v-2.26h13.47v2.26h-5.38v8.55h-2.74ZM76.5 93.54v-6.49h-1.23v-1.88h1c.07 0 .23-.04.23-.34v-.46h2.19v9.17H76.5Zm7.68 0v-1.91h8.42c.5 0 .84-.31.84-.85v-.76h-6.99c-1.29 0-2.2-.54-2.68-1.35-.29-.48-.37-.99-.37-1.47 0-.67.18-1.42.81-2.02.57-.54 1.33-.81 2.24-.81h6.16c1.28 0 2.19.55 2.68 1.35.28.46.37.96.37 1.42v3.63c0 .84-.31 1.83-1.44 2.4-.49.25-1.03.36-1.61.36h-8.43v.01Zm9.26-5.43v-.96c0-.54-.33-.86-.84-.86h-6.15c-.23 0-.41.07-.57.21-.18.16-.26.41-.26.7 0 .57.33.91.84.91h6.98Zm163.92 5.43v-1.91h8.42c.5 0 .84-.31.84-.85v-.76h-6.99c-1.29 0-2.2-.54-2.68-1.35-.29-.48-.37-.99-.37-1.47 0-.67.18-1.42.81-2.02.57-.54 1.33-.81 2.24-.81h6.16c1.28 0 2.19.55 2.68 1.35.28.46.37.96.37 1.42v3.63c0 .84-.31 1.83-1.44 2.4-.49.25-1.03.36-1.61.36h-8.43v.01Zm9.26-5.43v-.96c0-.54-.33-.86-.84-.86h-6.14c-.24 0-.41.07-.58.21-.18.16-.26.41-.26.7 0 .57.33.91.84.91h6.98Zm6.41 4.06v-1.68l8.2-6.12h2.57v5.94h1.21v1.85h-1.21v1.37h-2.19v-1.37h-8.59l.01.01Zm3.48-1.85h5.1v-3.71l-5.1 3.71Z"/>
        <path fill="#F6DC8E"
              d="M125.44 189.69h-16.37v5.69h-3.05v-21.87h19.42c1.6 0 3 .33 4.19 1 1.19.67 2.13 1.61 2.82 2.84.67 1.23 1 2.67 1 4.31 0 2.41-.73 4.34-2.2 5.81-1.47 1.48-3.41 2.22-5.81 2.22Zm-.03-13.13h-16.34v10.09h16.34c1.5 0 2.71-.46 3.62-1.39.92-.92 1.37-2.14 1.37-3.67 0-1.53-.46-2.74-1.37-3.66-.92-.92-2.12-1.38-3.62-1.38v.01Zm13.75 18.82v-21.87h3.05v21.87h-3.05Zm20.39-3.05h16.59v3.05h-16.59c-2.18 0-4.07-.44-5.69-1.33-1.61-.88-2.89-2.16-3.81-3.81-.91-1.63-1.36-3.55-1.36-5.75s.45-4.13 1.36-5.76c.91-1.65 2.17-2.93 3.8-3.84 1.63-.92 3.54-1.38 5.7-1.38h16.59v3.05h-16.59c-1.55 0-2.91.33-4.08.98-1.17.66-2.08 1.59-2.75 2.8-.66 1.18-.98 2.56-.98 4.14 0 1.58.32 2.98.96 4.15.64 1.17 1.56 2.08 2.76 2.74 1.19.65 2.55.97 4.09.97v-.01Zm26.13-6.1v9.15h-3.05v-21.87h3.05v9.67h21.35v-9.67h3.05v21.87h-3.05v-9.15h-21.35Zm30.89-12.72h3.08v18.82h21.32v3.05h-24.4v-21.87Z"/>
        <path fill="#F6DC8E" fill-rule="evenodd"
              d="m176.15 208.28-1.61 4.97h-5.23l4.24 3.05-1.63 4.97 4.22-3.08 4.22 3.08-1.62-4.97 4.23-3.07h-5.23l-1.61-4.96.02.01Zm-35.23 3.09-.84 2.62h-2.75l2.23 1.61-.85 2.61 2.22-1.62 2.22 1.62-.85-2.61 2.23-1.61h-2.75l-.84-2.61-.02-.01Zm11.15 2.29 3.09 2.24-1.19 3.63 3.08-2.25 3.08 2.25-1.19-3.63 3.09-2.24h-3.82l-1.17-3.63-1.17 3.63h-3.82.02Zm55.45.3 2.21 1.6-.85 2.59 2.2-1.61 2.2 1.61-.85-2.59 2.21-1.6h-2.72l-.84-2.59-.84 2.59h-2.72Zm-17.57-.31 3.09 2.24-1.19 3.63 3.08-2.25 3.08 2.25-1.19-3.63 3.09-2.24h-3.82l-1.17-3.63-1.17 3.63h-3.82.02Z"
              clip-rule="evenodd"/>
        <path fill="#F6DC8E"
              d="M225.84 96.58c.33 1.09 1.06 2.03 1.93 2.77 1.08.92 2.38 1.69 3.61 2.37 1.62.9 3.27 1.74 4.7 2.94 1 .84 1.75 1.84 1.81 3.22.02.6-.14.86-.74.81-1-.08-2.01-.15-2.96-.43-2.22-.65-4.42-1.42-6.62-2.15-2.45-.81-4.92-1.52-7.54-1.44-.67.02-1.35.13-1.99.31-1.92.56-2.93 1.96-3.31 3.85-.16.81.06 1.63.47 2.31.94 1.57 1.93 3.11 2.95 4.64 1.14 1.73 2.35 3.41 3.48 5.14.49.75.84 1.58.9 2.5.07 1.04-.78 2.45-1.73 2.88-.47.21-.89.06-1.31-.15-1.26-.64-2.37-1.49-3.24-2.61-1.15-1.49-2.36-2.95-3.35-4.54-2.75-4.42-7.08-6.93-11.95-8.45-2.46-.77-4.97-1.33-7.45-2.03-1.26-.35-2.48-.81-3.73-1.2-.99-.31-1.97-.6-2.53-1.58-.41-.71-.43-1.58-.3-2.39.42-2.72 2.23-4.77 3.84-6.88 1.7-2.23 2.82-4.85 3.91-7.41 2.19-5.15 3.86-10.47 4.87-15.99.53-2.89.74-5.79.25-8.71-.51-3.03-1.99-5.38-4.71-6.89-.74-.41-1.48-.83-2.19-1.29-1.1-.72-1.7-1.72-1.6-3.09.06-.79.36-1.46 1.05-1.84.88-.47 1.8-.87 2.72-1.27 1.01-.44 2.06-.78 3.03-1.27 2.25-1.16 2.97-2.68 2.58-5.19-.36-2.37-1.18-4.61-1.88-6.89-.3-.97-.59-1.95-.8-2.95-.33-1.56-.11-2.19 1.43-3.35.06-.04.11-.1.17-.14h.57c1.17.71 2.14 1.65 2.82 2.84.61 1.06 1.23 2.13 1.68 3.25.88 2.16 1.63 4.38 2.46 6.56.43 1.11.87 2.22 1.4 3.29.77 1.54 2.18 1.86 3.58.87.48-.34.97-.73 1.33-1.19 1.13-1.44 2.22-2.92 3.29-4.41 1.08-1.51 2.1-3.07 3.51-4.29.52-.45 1.14-.86 1.79-1.09 1.28-.45 2.42.64 2.12 1.95-.12.5-.26 1.01-.49 1.47-.96 1.96-1.9 3.92-2.96 5.83-1.14 2.06-1.41 4.14-.56 6.37.46 1.22.89 2.45 1.71 3.49.5.62.96.78 1.7.49.48-.19.94-.44 1.35-.75 1.27-.93 2.28-2.12 3.13-3.42.49-.75 3.12-5.61 4.28-4.41.23.23.29.57.33.9.44 3.37.3 7.56-1.98 10.29-.74.89-1.5 1.77-2.29 2.63-2.33 2.51-4.69 4.99-6.68 7.79-1.26 1.77-2.41 3.6-3.07 5.69-.34 1.09-.52 2.21-.29 3.34.36 1.75 1.45 2.95 2.93 3.85 2.56 1.56 5.37 1.47 7.71-.37 1.38-1.08 2.69-2.26 3.95-3.49 1.37-1.33 2.62-2.8 4.22-3.88.59-.4 1.26-.7 1.93-.92.63-.21 1.14.12 1.39.73.09.23.16.47.23.71v1.6c-1.11 4.66-4.24 7.92-7.66 10.95-1.42 1.26-2.97 2.37-4.37 3.65-1.64 1.51-3.53 3.66-2.82 6.06l-.01.01Zm-99.71 0c-.33 1.09-1.06 2.03-1.93 2.77-1.08.92-2.38 1.69-3.61 2.37-1.62.9-3.27 1.74-4.7 2.94-1 .84-1.75 1.84-1.81 3.22-.02.6.14.86.74.81 1-.08 2.01-.15 2.96-.43 2.22-.65 4.42-1.42 6.62-2.15 2.45-.81 4.92-1.52 7.54-1.44.67.02 1.35.13 1.99.31 1.92.56 2.93 1.96 3.31 3.85.16.81-.06 1.63-.47 2.31-.94 1.57-1.93 3.11-2.95 4.64-1.14 1.73-2.35 3.41-3.48 5.14-.49.75-.84 1.58-.9 2.5-.07 1.04.78 2.45 1.73 2.88.47.21.89.06 1.31-.15 1.26-.64 2.37-1.49 3.24-2.61 1.15-1.49 2.36-2.95 3.35-4.54 2.75-4.42 7.08-6.93 11.95-8.45 2.46-.77 4.97-1.33 7.45-2.03 1.26-.35 2.48-.81 3.73-1.2.99-.31 1.97-.6 2.53-1.58.41-.71.43-1.58.3-2.39-.42-2.72-2.23-4.77-3.84-6.88-1.7-2.23-2.82-4.85-3.91-7.41-2.19-5.15-3.86-10.47-4.87-15.99-.53-2.89-.74-5.79-.25-8.71.51-3.03 1.99-5.38 4.71-6.89.74-.41 1.48-.83 2.19-1.29 1.1-.72 1.7-1.72 1.6-3.09-.06-.79-.36-1.46-1.05-1.84-.88-.47-1.8-.87-2.72-1.27-1.01-.44-2.06-.78-3.03-1.27-2.25-1.16-2.97-2.68-2.58-5.19.36-2.37 1.18-4.61 1.88-6.89.3-.97.59-1.95.8-2.95.33-1.56.11-2.19-1.43-3.35-.06-.04-.11-.1-.17-.14h-.57c-1.17.71-2.14 1.65-2.82 2.84-.61 1.06-1.23 2.13-1.68 3.25-.88 2.16-1.63 4.38-2.46 6.56-.43 1.11-.87 2.22-1.4 3.29-.77 1.54-2.18 1.86-3.58.87-.48-.34-.97-.73-1.33-1.19-1.13-1.44-2.22-2.92-3.29-4.41-1.08-1.51-2.1-3.07-3.51-4.29-.52-.45-1.14-.86-1.79-1.09-1.28-.45-2.42.64-2.12 1.95.12.5.26 1.01.49 1.47.96 1.96 1.9 3.92 2.96 5.83 1.14 2.06 1.41 4.14.56 6.37-.46 1.22-.89 2.45-1.71 3.49-.5.62-.96.78-1.7.49-.48-.19-.94-.44-1.35-.75-1.27-.93-2.28-2.12-3.13-3.42-.49-.75-3.12-5.61-4.28-4.41-.23.23-.29.57-.33.9-.44 3.37-.3 7.56 1.98 10.29.74.89 1.5 1.77 2.29 2.63 2.33 2.51 4.69 4.99 6.68 7.79 1.26 1.77 2.41 3.6 3.07 5.69.34 1.09.52 2.21.29 3.34-.36 1.75-1.45 2.95-2.93 3.85-2.56 1.56-5.37 1.47-7.71-.37-1.38-1.08-2.69-2.26-3.95-3.49-1.37-1.33-2.62-2.8-4.22-3.88-.59-.4-1.26-.7-1.93-.92-.63-.21-1.14.12-1.39.73-.09.23-.16.47-.23.71v1.6c1.11 4.66 4.24 7.92 7.66 10.95 1.42 1.26 2.97 2.37 4.37 3.65 1.64 1.51 3.53 3.66 2.82 6.06l.01.01Zm45.41 6.9c.04-1.74.51-3.42 1.69-4.85 1.48-1.8 3.46-1.88 5.07-.19 3.09 3.27 2.52 7.22.22 9.98-1.49 1.79-3.54 1.81-5.13.09-1.28-1.39-1.83-3.08-1.85-5.03Z"/>
    </g>
    <defs>
        <clipPath id="a">
            <path fill="#fff" d="M.5.200012h350.96v269.2H.5z"/>
        </clipPath>
    </defs>
</svg>
