<svg width="352" height="270" viewBox="0 0 352 270" fill="none" xmlns="http://www.w3.org/2000/svg">
<g clip-path="url(#clip0_2068_35)">
<path fill-rule="evenodd" clip-rule="evenodd" d="M173.51 267.96C151.25 253.5 127.06 246.64 102.54 239.68L100.06 238.98C78.05 232.73 53.15 225.65 35.09 208.54C22.13 196.26 14.51 180.41 10.31 163.03C6.12002 145.73 5.31002 126.92 5.95002 108.62C6.09002 104.56 6.19002 96.0599 5.54002 88.7999C5.14002 84.2799 4.45002 80.2799 3.31002 78.2499L0.52002 73.2399L4.76002 69.8699C12.67 63.5699 20.8 57.7499 29.15 52.4199C37.51 47.0699 46.08 42.2099 54.86 37.8299C74 28.2699 93.91 21.0599 114.13 15.1899C134.31 9.33994 154.82 4.81994 175.19 0.669936L176.28 0.449936L177.36 0.749936C188.18 3.78994 199.18 6.19994 210.14 8.60994L216.36 9.97994C223.62 11.5899 230.85 13.2399 238 15.0199C245.22 16.8199 252.4 18.7599 259.51 20.9499C275.64 25.9099 291.11 32.0599 305.85 40.0499C320.6 48.0399 334.6 57.8599 347.77 70.1599L351.48 73.6199L348.89 78.2499C347.76 80.2799 347.07 84.2899 346.66 88.7999C346.01 96.0599 346.11 104.56 346.25 108.62C346.88 126.92 346.07 145.73 341.89 163.03C337.68 180.41 330.07 196.26 317.11 208.54C299.05 225.65 274.14 232.73 252.13 238.98L249.66 239.68C225.14 246.64 200.95 253.51 178.69 267.96L176.1 269.65L173.51 267.96Z" fill="#1C3637"/>
<path fill-rule="evenodd" clip-rule="evenodd" d="M173.51 267.96C151.25 253.5 127.06 246.64 102.54 239.68L100.06 238.98C78.05 232.73 53.15 225.65 35.09 208.54C22.13 196.26 14.51 180.41 10.31 163.03C6.12002 145.73 5.31002 126.92 5.95002 108.62C6.09002 104.56 6.19002 96.0599 5.54002 88.7999C5.14002 84.2799 4.45002 80.2799 3.31002 78.2499L0.52002 73.2399L4.76002 69.8699C12.67 63.5699 20.8 57.7499 29.15 52.4199C37.51 47.0699 46.08 42.2099 54.86 37.8299C74 28.2699 93.91 21.0599 114.13 15.1899C134.31 9.33994 154.82 4.81994 175.19 0.669936L176.28 0.449936L177.36 0.749936C188.18 3.78994 199.18 6.19994 210.14 8.60994L216.36 9.97994C223.62 11.5899 230.85 13.2399 238 15.0199C245.22 16.8199 252.4 18.7599 259.51 20.9499C275.64 25.9099 291.11 32.0599 305.85 40.0499C320.6 48.0399 334.6 57.8599 347.77 70.1599L351.48 73.6199L348.89 78.2499C347.76 80.2799 347.07 84.2899 346.66 88.7999C346.01 96.0599 346.11 104.56 346.25 108.62C346.88 126.92 346.07 145.73 341.89 163.03C337.68 180.41 330.07 196.26 317.11 208.54C299.05 225.65 274.14 232.73 252.13 238.98L249.66 239.68C225.14 246.64 200.95 253.51 178.69 267.96L176.1 269.65L173.51 267.96Z" fill="#1C3637"/>
<path fill-rule="evenodd" clip-rule="evenodd" d="M176.17 0.439947V269.57L176.1 269.62L173.51 267.93C151.25 253.48 127.08 246.61 102.55 239.66L100.08 238.96C78.07 232.69 53.16 225.63 35.1 208.52C22.13 196.24 14.53 180.38 10.32 163C6.14003 145.69 5.32003 126.89 5.96003 108.58C6.09003 104.52 6.21003 96.0299 5.54003 88.7599C5.14003 84.2499 4.45003 80.2399 3.32003 78.2199L0.530029 73.2199L4.77003 69.84C12.67 63.54 20.81 57.7299 29.15 52.3799C37.52 47.0299 46.09 42.1699 54.87 37.7899C74 28.2299 93.92 21.0099 114.14 15.1499C134.32 9.29995 154.83 4.78995 175.2 0.629947L176.19 0.429947L176.17 0.439947Z" fill="#40534E"/>
<path d="M35.5099 155.85V147.3H30.1599V145.04H43.6299V147.3H38.2499V155.85H35.5099Z" fill="white"/>
<path d="M48.45 155.85V145.03H58.24C60.13 145.03 61.43 145.86 62.11 147.05C62.5 147.73 62.63 148.48 62.63 149.18C62.63 150.16 62.37 151.24 61.47 152.1C61.15 152.41 60.7599 152.68 60.2999 152.88L63.1899 155.85H59.75L57.25 153.27H51.09V155.85H48.4599H48.45ZM51.08 151H58.2299C58.7599 151 59.1499 150.86 59.4799 150.54C59.8599 150.18 60 149.69 60 149.15C60 148.61 59.8499 148.12 59.4799 147.76C59.1599 147.45 58.7599 147.3 58.2299 147.3H51.08V151.01V151Z" fill="white"/>
<path d="M67.6299 155.85L74.5299 145.03H77.7599L84.6599 155.85H81.6699L80.3799 153.84H71.8999L70.6099 155.85H67.6199H67.6299ZM73.3499 151.57H78.9399L76.2299 147.29H76.0799L73.3499 151.57Z" fill="white"/>
<path d="M89.49 155.85V145.03H92.12V149.31H94.98L99.96 145.03H103.65L97.41 150.44L103.65 155.85H99.96L94.98 151.58H92.12V155.85H89.49Z" fill="white"/>
<path d="M108.46 155.85V145.03H121.93V147.29H111.09V149.3H119.36V151.57H111.09V153.58H121.93V155.85H108.46Z" fill="white"/>
<path d="M127.14 155.85V145.03H129.77V149.43H138.7V145.03H141.33V155.85H138.7V151.69H129.77V155.85H127.14Z" fill="white"/>
<path d="M146.92 155.85V145.03H149.22L158.47 152.54V145.03H161.1V155.85H158.81L149.55 148.44V155.85H146.92Z" fill="white"/>
<path d="M166.3 155.85V145.03H179.77V147.29H168.93V149.3H177.2V151.57H168.93V153.58H179.77V155.85H166.3Z" fill="white"/>
<path d="M184.98 155.85V145.03H194.77C196.66 145.03 197.96 145.86 198.64 147.05C199.02 147.73 199.16 148.48 199.16 149.18C199.16 150.16 198.9 151.24 198 152.1C197.68 152.41 197.29 152.68 196.83 152.88L199.72 155.85H196.28L193.78 153.27H187.61V155.85H184.98ZM187.6 151H194.75C195.28 151 195.67 150.86 196 150.54C196.38 150.18 196.52 149.69 196.52 149.15C196.52 148.61 196.37 148.12 196 147.76C195.68 147.45 195.28 147.3 194.75 147.3H187.6V151.01V151Z" fill="white"/>
<path d="M219.16 151.61V149.34H228.56V155.84H220.05C217.63 155.84 215.94 154.75 215.06 153.22C214.56 152.34 214.38 151.38 214.38 150.46C214.38 149.54 214.56 148.56 215.07 147.66C215.95 146.14 217.62 145.02 220.06 145.02H228.44V147.28H220.08C219.16 147.28 218.45 147.54 217.88 148.08C217.23 148.71 217 149.55 217 150.41C217 151.27 217.23 152.12 217.89 152.75C218.45 153.3 219.16 153.57 220.08 153.57H225.97V151.6H219.18L219.16 151.61Z" fill="white"/>
<path d="M233.77 155.85V145.03H247.24V147.29H236.4V149.3H244.67V151.57H236.4V153.58H247.24V155.85H233.77Z" fill="white"/>
<path d="M252.5 155.85V153.58H262.72C263.26 153.58 263.62 153.22 263.62 152.58C263.62 151.94 263.27 151.57 262.72 151.57H255.57C254.51 151.57 253.64 151.24 253 150.63C252.28 149.94 252.07 149.08 252.07 148.32C252.07 147.56 252.28 146.67 253 145.99C253.65 145.37 254.51 145.03 255.57 145.03H265.82V147.29H255.59C255.06 147.29 254.69 147.66 254.69 148.28C254.69 148.9 255.05 149.3 255.59 149.3H262.74C263.8 149.3 264.68 149.62 265.32 150.24C266.04 150.93 266.24 151.79 266.24 152.55C266.24 153.31 266.03 154.19 265.32 154.88C264.68 155.5 263.79 155.84 262.73 155.84H252.49L252.5 155.85Z" fill="white"/>
<path d="M276.03 155.85V147.3H270.68V145.04H284.15V147.3H278.77V155.85H276.03Z" fill="white"/>
<path d="M288.97 145.03H291.6V149.22C291.6 150.71 292.18 152.24 293.73 153.06C294.42 153.42 295.16 153.58 296.03 153.58C296.9 153.58 297.68 153.43 298.38 153.06C299.95 152.24 300.53 150.72 300.53 149.22V145.03H303.16V149.26C303.16 150.39 302.94 151.58 302.31 152.66C301.19 154.57 299.1 155.85 296.11 155.85C293.12 155.85 290.96 154.59 289.83 152.67C289.19 151.58 288.97 150.4 288.97 149.26V145.03ZM293.18 144.11V141.84H295.81V144.11H293.18ZM296.31 144.11V141.84H298.94V144.11H296.31Z" fill="white"/>
<path d="M313.32 155.85V147.3H307.97V145.04H321.44V147.3H316.06V155.85H313.32Z" fill="white"/>
<path d="M76.52 93.7799V87.2899H75.29V85.4099H76.29C76.36 85.4099 76.52 85.3699 76.52 85.0699V84.6099H78.71V93.7799H76.52Z" fill="white"/>
<path d="M84.1999 93.7799V91.8699H92.6199C93.1199 91.8699 93.4599 91.5599 93.4599 91.0199V90.2599H86.4699C85.1799 90.2599 84.2699 89.7199 83.7899 88.9099C83.4999 88.4299 83.4199 87.9199 83.4199 87.4399C83.4199 86.7699 83.5999 86.0199 84.2299 85.4199C84.7999 84.8799 85.5599 84.6099 86.4699 84.6099H92.6299C93.9099 84.6099 94.8199 85.1599 95.3099 85.9599C95.5899 86.4199 95.6799 86.9199 95.6799 87.3799V91.0099C95.6799 91.8499 95.3699 92.8399 94.2399 93.4099C93.7499 93.6599 93.2099 93.7699 92.6299 93.7699H84.1999V93.7799ZM93.4599 88.3499V87.3899C93.4599 86.8499 93.1299 86.5299 92.6199 86.5299H86.4699C86.2399 86.5299 86.0599 86.5999 85.8999 86.7399C85.7199 86.8999 85.6399 87.1499 85.6399 87.4399C85.6399 88.0099 85.9699 88.3499 86.4799 88.3499H93.4599Z" fill="white"/>
<path d="M257.38 93.7799V91.8699H265.8C266.3 91.8699 266.64 91.5599 266.64 91.0199V90.2599H259.65C258.36 90.2599 257.45 89.7199 256.97 88.9099C256.68 88.4299 256.6 87.9199 256.6 87.4399C256.6 86.7699 256.78 86.0199 257.41 85.4199C257.98 84.8799 258.74 84.6099 259.65 84.6099H265.81C267.09 84.6099 268 85.1599 268.49 85.9599C268.77 86.4199 268.86 86.9199 268.86 87.3799V91.0099C268.86 91.8499 268.55 92.8399 267.42 93.4099C266.93 93.6599 266.39 93.7699 265.81 93.7699H257.38V93.7799ZM266.64 88.3499V87.3899C266.64 86.8499 266.31 86.5299 265.8 86.5299H259.66C259.42 86.5299 259.25 86.5999 259.08 86.7399C258.9 86.8999 258.82 87.1499 258.82 87.4399C258.82 88.0099 259.15 88.3499 259.66 88.3499H266.64Z" fill="white"/>
<path d="M273.05 92.4099V90.7299L281.25 84.6099H283.82V90.5499H285.03V92.3999H283.82V93.7699H281.63V92.3999H273.04L273.05 92.4099ZM276.53 90.5599H281.63V86.8499L276.53 90.5599Z" fill="white"/>
<path d="M125.46 189.93H109.09V195.62H106.04V173.75H125.46C127.06 173.75 128.46 174.08 129.65 174.75C130.84 175.42 131.78 176.36 132.47 177.59C133.14 178.82 133.47 180.26 133.47 181.9C133.47 184.31 132.74 186.24 131.27 187.71C129.8 189.19 127.86 189.93 125.46 189.93ZM125.43 176.8H109.09V186.89H125.43C126.93 186.89 128.14 186.43 129.05 185.5C129.97 184.58 130.42 183.36 130.42 181.83C130.42 180.3 129.96 179.09 129.05 178.17C128.13 177.25 126.93 176.79 125.43 176.79V176.8Z" fill="#D6BC99"/>
<path d="M139.18 195.62V173.75H142.23V195.62H139.18Z" fill="#D6BC99"/>
<path d="M159.57 192.57H176.16V195.62H159.57C157.39 195.62 155.5 195.18 153.88 194.29C152.27 193.41 150.99 192.13 150.07 190.48C149.16 188.85 148.71 186.93 148.71 184.73C148.71 182.53 149.16 180.6 150.07 178.97C150.98 177.32 152.24 176.04 153.87 175.13C155.5 174.21 157.41 173.75 159.57 173.75H176.16V176.8H159.57C158.02 176.8 156.66 177.13 155.49 177.78C154.32 178.44 153.41 179.37 152.74 180.58C152.08 181.76 151.76 183.14 151.76 184.72C151.76 186.3 152.08 187.7 152.72 188.87C153.36 190.04 154.28 190.95 155.48 191.61C156.67 192.26 158.03 192.58 159.57 192.58V192.57Z" fill="#D6BC99"/>
<path d="M185.7 186.47V195.62H182.65V173.75H185.7V183.42H207.05V173.75H210.1V195.62H207.05V186.47H185.7Z" fill="#D6BC99"/>
<path d="M216.59 173.75H219.67V192.57H240.99V195.62H216.59V173.75Z" fill="#D6BC99"/>
<path fill-rule="evenodd" clip-rule="evenodd" d="M176.17 208.52L174.56 213.49H169.33L173.57 216.54L171.94 221.51L176.16 218.43L180.38 221.51L178.76 216.54L182.99 213.47H177.76L176.15 208.51L176.17 208.52ZM140.94 211.61L140.1 214.23H137.35L139.58 215.84L138.73 218.45L140.95 216.83L143.17 218.45L142.32 215.84L144.55 214.23H141.8L140.96 211.62L140.94 211.61ZM152.09 213.9L155.18 216.14L153.99 219.77L157.07 217.52L160.15 219.77L158.96 216.14L162.05 213.9H158.23L157.06 210.27L155.89 213.9H152.07H152.09ZM207.54 214.2L209.75 215.8L208.9 218.39L211.1 216.78L213.3 218.39L212.45 215.8L214.66 214.2H211.94L211.1 211.61L210.26 214.2H207.54ZM189.97 213.89L193.06 216.13L191.87 219.76L194.95 217.51L198.03 219.76L196.84 216.13L199.93 213.89H196.11L194.94 210.26L193.77 213.89H189.95H189.97Z" fill="#D6BC99"/>
<path d="M225.86 96.8199C226.19 97.9099 226.92 98.85 227.79 99.59C228.87 100.51 230.17 101.28 231.4 101.96C233.02 102.86 234.67 103.7 236.1 104.9C237.1 105.74 237.85 106.74 237.91 108.12C237.93 108.72 237.77 108.98 237.17 108.93C236.17 108.85 235.16 108.78 234.21 108.5C231.99 107.85 229.79 107.08 227.59 106.35C225.14 105.54 222.67 104.83 220.05 104.91C219.38 104.93 218.7 105.04 218.06 105.22C216.14 105.78 215.13 107.18 214.75 109.07C214.59 109.88 214.81 110.7 215.22 111.38C216.16 112.95 217.15 114.49 218.17 116.02C219.31 117.75 220.52 119.43 221.65 121.16C222.14 121.91 222.49 122.74 222.55 123.66C222.62 124.7 221.77 126.11 220.82 126.54C220.35 126.75 219.93 126.6 219.51 126.39C218.25 125.75 217.14 124.9 216.27 123.78C215.12 122.29 213.91 120.83 212.92 119.24C210.17 114.82 205.84 112.31 200.97 110.79C198.51 110.02 196 109.46 193.52 108.76C192.26 108.41 191.04 107.95 189.79 107.56C188.8 107.25 187.82 106.96 187.26 105.98C186.85 105.27 186.83 104.4 186.96 103.59C187.38 100.87 189.19 98.8199 190.8 96.7099C192.5 94.4799 193.62 91.8599 194.71 89.2999C196.9 84.1499 198.57 78.83 199.58 73.31C200.11 70.42 200.32 67.52 199.83 64.6C199.32 61.57 197.84 59.2199 195.12 57.7099C194.38 57.2999 193.64 56.8799 192.93 56.4199C191.83 55.6999 191.23 54.6999 191.33 53.3299C191.39 52.5399 191.69 51.8699 192.38 51.4899C193.26 51.0199 194.18 50.6199 195.1 50.2199C196.11 49.7799 197.16 49.4399 198.13 48.9499C200.38 47.7899 201.1 46.2699 200.71 43.7599C200.35 41.3899 199.53 39.1499 198.83 36.8699C198.53 35.8999 198.24 34.9199 198.03 33.9199C197.7 32.3599 197.92 31.7299 199.46 30.5699C199.52 30.5299 199.57 30.4699 199.63 30.4299H200.2C201.37 31.1399 202.34 32.0799 203.02 33.2699C203.63 34.3299 204.25 35.3999 204.7 36.5199C205.58 38.6799 206.33 40.8999 207.16 43.0799C207.59 44.1899 208.03 45.2999 208.56 46.3699C209.33 47.9099 210.74 48.2299 212.14 47.2399C212.62 46.8999 213.11 46.5099 213.47 46.0499C214.6 44.6099 215.69 43.1299 216.76 41.6399C217.84 40.1299 218.86 38.5699 220.27 37.3499C220.79 36.8999 221.41 36.4899 222.06 36.2599C223.34 35.8099 224.48 36.8999 224.18 38.2099C224.06 38.7099 223.92 39.2199 223.69 39.6799C222.73 41.6399 221.79 43.5999 220.73 45.5099C219.59 47.5699 219.32 49.6499 220.17 51.8799C220.63 53.0999 221.06 54.3299 221.88 55.3699C222.38 55.9899 222.84 56.1499 223.58 55.8599C224.06 55.6699 224.52 55.4199 224.93 55.1099C226.2 54.1799 227.21 52.9899 228.06 51.6899C228.55 50.9399 231.18 46.0799 232.34 47.2799C232.57 47.5099 232.63 47.8499 232.67 48.1799C233.11 51.5499 232.97 55.7399 230.69 58.4699C229.95 59.3599 229.19 60.2399 228.4 61.0999C226.07 63.6099 223.71 66.0899 221.72 68.8899C220.46 70.6599 219.31 72.4899 218.65 74.5799C218.31 75.6699 218.13 76.79 218.36 77.92C218.72 79.67 219.81 80.87 221.29 81.77C223.85 83.33 226.66 83.2399 229 81.3999C230.38 80.3199 231.69 79.14 232.95 77.91C234.32 76.58 235.57 75.1099 237.17 74.0299C237.76 73.6299 238.43 73.3299 239.1 73.1099C239.73 72.8999 240.24 73.23 240.49 73.84C240.58 74.07 240.65 74.3099 240.72 74.5499V76.1499C239.61 80.8099 236.48 84.07 233.06 87.1C231.64 88.36 230.09 89.4699 228.69 90.7499C227.05 92.2599 225.16 94.41 225.87 96.81L225.86 96.8199Z" fill="#D6BC99"/>
<path d="M126.15 96.8199C125.82 97.9099 125.09 98.85 124.22 99.59C123.14 100.51 121.84 101.28 120.61 101.96C118.99 102.86 117.34 103.7 115.91 104.9C114.91 105.74 114.16 106.74 114.1 108.12C114.08 108.72 114.24 108.98 114.84 108.93C115.84 108.85 116.85 108.78 117.8 108.5C120.02 107.85 122.22 107.08 124.42 106.35C126.87 105.54 129.34 104.83 131.96 104.91C132.63 104.93 133.31 105.04 133.95 105.22C135.87 105.78 136.88 107.18 137.26 109.07C137.42 109.88 137.2 110.7 136.79 111.38C135.85 112.95 134.86 114.49 133.84 116.02C132.7 117.75 131.49 119.43 130.36 121.16C129.87 121.91 129.52 122.74 129.46 123.66C129.39 124.7 130.24 126.11 131.19 126.54C131.66 126.75 132.08 126.6 132.5 126.39C133.76 125.75 134.87 124.9 135.74 123.78C136.89 122.29 138.1 120.83 139.09 119.24C141.84 114.82 146.17 112.31 151.04 110.79C153.5 110.02 156.01 109.46 158.49 108.76C159.75 108.41 160.97 107.95 162.22 107.56C163.21 107.25 164.19 106.96 164.75 105.98C165.16 105.27 165.18 104.4 165.05 103.59C164.63 100.87 162.82 98.8199 161.21 96.7099C159.51 94.4799 158.39 91.8599 157.3 89.2999C155.11 84.1499 153.44 78.83 152.43 73.31C151.9 70.42 151.69 67.52 152.18 64.6C152.69 61.57 154.17 59.2199 156.89 57.7099C157.63 57.2999 158.37 56.8799 159.08 56.4199C160.18 55.6999 160.78 54.6999 160.68 53.3299C160.62 52.5399 160.32 51.8699 159.63 51.4899C158.75 51.0199 157.83 50.6199 156.91 50.2199C155.9 49.7799 154.85 49.4399 153.88 48.9499C151.63 47.7899 150.91 46.2699 151.3 43.7599C151.66 41.3899 152.48 39.1499 153.18 36.8699C153.48 35.8999 153.77 34.9199 153.98 33.9199C154.31 32.3599 154.09 31.7299 152.55 30.5699C152.49 30.5299 152.44 30.4699 152.38 30.4299H151.81C150.64 31.1399 149.67 32.0799 148.99 33.2699C148.38 34.3299 147.76 35.3999 147.31 36.5199C146.43 38.6799 145.68 40.8999 144.85 43.0799C144.42 44.1899 143.98 45.2999 143.45 46.3699C142.68 47.9099 141.27 48.2299 139.87 47.2399C139.39 46.8999 138.9 46.5099 138.54 46.0499C137.41 44.6099 136.32 43.1299 135.25 41.6399C134.17 40.1299 133.15 38.5699 131.74 37.3499C131.22 36.8999 130.6 36.4899 129.95 36.2599C128.67 35.8099 127.53 36.8999 127.83 38.2099C127.95 38.7099 128.09 39.2199 128.32 39.6799C129.28 41.6399 130.22 43.5999 131.28 45.5099C132.42 47.5699 132.69 49.6499 131.84 51.8799C131.38 53.0999 130.95 54.3299 130.13 55.3699C129.63 55.9899 129.17 56.1499 128.43 55.8599C127.95 55.6699 127.49 55.4199 127.08 55.1099C125.81 54.1799 124.8 52.9899 123.95 51.6899C123.46 50.9399 120.83 46.0799 119.67 47.2799C119.44 47.5099 119.38 47.8499 119.34 48.1799C118.9 51.5499 119.04 55.7399 121.32 58.4699C122.06 59.3599 122.82 60.2399 123.61 61.0999C125.94 63.6099 128.3 66.0899 130.29 68.8899C131.55 70.6599 132.7 72.4899 133.36 74.5799C133.7 75.6699 133.88 76.79 133.65 77.92C133.29 79.67 132.2 80.87 130.72 81.77C128.16 83.33 125.35 83.2399 123.01 81.3999C121.63 80.3199 120.32 79.14 119.06 77.91C117.69 76.58 116.44 75.1099 114.84 74.0299C114.25 73.6299 113.58 73.3299 112.91 73.1099C112.28 72.8999 111.77 73.23 111.52 73.84C111.43 74.07 111.36 74.3099 111.29 74.5499V76.1499C112.4 80.8099 115.53 84.07 118.95 87.1C120.37 88.36 121.92 89.4699 123.32 90.7499C124.96 92.2599 126.85 94.41 126.14 96.81L126.15 96.8199Z" fill="#D6BC99"/>
<path d="M171.56 103.72C171.6 101.98 172.07 100.3 173.25 98.8699C174.73 97.0699 176.71 96.9899 178.32 98.6799C181.41 101.95 180.84 105.9 178.54 108.66C177.05 110.45 175 110.47 173.41 108.75C172.13 107.36 171.58 105.67 171.56 103.72Z" fill="#D6BC99"/>
</g>
<defs>
<clipPath id="clip0_2068_35">
<rect width="350.96" height="269.2" fill="white" transform="translate(0.52002 0.439941)"/>
</clipPath>
</defs>
</svg>
